<svg width="360" height="196" viewBox="0 0 360 196" fill="none" xmlns="http://www.w3.org/2000/svg">
<g clip-path="url(#clip0_437_9177)">
<path fillRule="evenodd" clipRule="evenodd" d="M360.25 158.44V0.000335693L112.061 0.000329255L168.736 85.6132L221.239 158.44H211.588V198.301H369.276V158.44H360.25Z" fill="#281E94"/>
<path d="M181.63 -9.15527e-05H110.557L183.134 105.668L159.318 18.4261L181.63 -9.15527e-05Z" fill="#FFDC64"/>
<path d="M110.557 -9.15527e-05L169.345 85.7381C144.777 48.7353 138.886 12.9108 139.513 -9.15527e-05H110.557Z" fill="#3A35E5"/>
<path d="M139.638 6.26732C139.512 3.76035 139.638 1.37874 139.638 -9.15527e-05H181.962L159.318 18.4261L139.638 6.26732Z" fill="#DAB538"/>
<path d="M139.638 6.26732L127.855 -9.15527e-05H139.763L139.638 6.26732Z" fill="#BD9200"/>
<path fillRule="evenodd" clipRule="evenodd" d="M112.312 -0.00012207H-0.752075V147H-1V196H182.453L182.537 203.749L255.216 202.957L241.467 185.737L218.405 154.573L218.402 154.573L182.883 105.418L112.312 -0.00012207Z" fill="#030143"/>
</g>
<defs>
<clipPath id="clip0_437_9177">
<rect width="360" height="196" fill="white"/>
</clipPath>
</defs>
</svg>
