<svg width="142" height="67" viewBox="0 0 142 67" fill="none" xmlns="http://www.w3.org/2000/svg">
<path d="M14.6667 20.7349C14.6667 23.6804 17.0545 26.0682 20 26.0682C22.9455 26.0682 25.3333 23.6804 25.3333 20.7349C25.3333 17.7893 22.9455 15.4015 20 15.4015C17.0545 15.4015 14.6667 17.7893 14.6667 20.7349ZM78.5014 20.7349L79.2627 20.0864C79.0727 19.8634 78.7944 19.7349 78.5014 19.7349V20.7349ZM92.1296 36.7349L91.3683 37.3833C91.5583 37.6064 91.8366 37.7349 92.1296 37.7349V36.7349ZM138 37.7349C138.552 37.7349 139 37.2871 139 36.7349C139 36.1826 138.552 35.7349 138 35.7349V37.7349ZM20 21.7349H78.5014V19.7349H20V21.7349ZM77.7401 21.3833L91.3683 37.3833L92.8909 36.0864L79.2627 20.0864L77.7401 21.3833ZM92.1296 37.7349H138V35.7349H92.1296V37.7349Z" fill="url(#paint0_linear_437_9388)"/>
<path d="M56.5 41.7349C56.5 43.944 58.2909 45.7349 60.5 45.7349C62.7091 45.7349 64.5 43.944 64.5 41.7349C64.5 39.5257 62.7091 37.7349 60.5 37.7349C58.2909 37.7349 56.5 39.5257 56.5 41.7349ZM110.5 41.7349L110.799 41.0471C110.705 41.006 110.603 40.9849 110.5 40.9849V41.7349ZM122 46.7349L121.701 47.4227C121.795 47.4637 121.897 47.4849 122 47.4849V46.7349ZM138 47.4849C138.414 47.4849 138.75 47.1491 138.75 46.7349C138.75 46.3206 138.414 45.9849 138 45.9849V47.4849ZM60.5 42.4849H110.5V40.9849H60.5V42.4849ZM110.201 42.4227L121.701 47.4227L122.299 46.0471L110.799 41.0471L110.201 42.4227ZM122 47.4849H138V45.9849H122V47.4849Z" fill="#575FF0"/>
<path d="M67 28.7349C67 30.944 68.7909 32.7349 71 32.7349C73.2091 32.7349 75 30.944 75 28.7349C75 26.5257 73.2091 24.7349 71 24.7349C68.7909 24.7349 67 26.5257 67 28.7349ZM141 29.4849C141.414 29.4849 141.75 29.1491 141.75 28.7349C141.75 28.3206 141.414 27.9849 141 27.9849V29.4849ZM71 29.4849H141V27.9849H71V29.4849Z" fill="#1488CC"/>
<defs>
<linearGradient id="paint0_linear_437_9388" x1="140.167" y1="28.7349" x2="16.2673" y2="28.7349" gradientUnits="userSpaceOnUse">
<stop stopColor="#0095ED"/>
<stop offset="1" stopColor="#151ECF"/>
</linearGradient>
</defs>
</svg>
