<svg width="99" height="50" viewBox="0 0 99 50" fill="none" xmlns="http://www.w3.org/2000/svg">
<path d="M83 25.7349C83 23.5257 81.2091 21.7349 79 21.7349C76.7909 21.7349 75 23.5257 75 25.7349C75 27.944 76.7909 29.7349 79 29.7349C81.2091 29.7349 83 27.944 83 25.7349ZM29 25.7349L28.701 26.4227C28.7953 26.4637 28.8971 26.4849 29 26.4849L29 25.7349ZM17.5 20.7349L17.799 20.0471C17.7047 20.006 17.6029 19.9849 17.5 19.9849L17.5 20.7349ZM1.5 19.9849C1.08579 19.9849 0.75 20.3206 0.75 20.7349C0.75 21.1491 1.08579 21.4849 1.5 21.4849L1.5 19.9849ZM79 24.9849L29 24.9849L29 26.4849L79 26.4849L79 24.9849ZM29.299 25.0471L17.799 20.0471L17.201 21.4227L28.701 26.4227L29.299 25.0471ZM17.5 19.9849L1.5 19.9849L1.5 21.4849L17.5 21.4849L17.5 19.9849Z" fill="#575FF0"/>
<path d="M43.3333 13.7349C43.3333 10.7893 40.9455 8.40153 38 8.40153C35.0545 8.40153 32.6667 10.7893 32.6667 13.7349C32.6667 16.6804 35.0545 19.0682 38 19.0682C40.9455 19.0682 43.3333 16.6804 43.3333 13.7349ZM1.5 12.7349C0.947716 12.7349 0.5 13.1826 0.5 13.7349C0.5 14.2871 0.947716 14.7349 1.5 14.7349V12.7349ZM38 12.7349H1.5V14.7349H38V12.7349Z" fill="#1488CC"/>
<path d="M61.5 45.7349C61.5 43.5257 59.7091 41.7349 57.5 41.7349C55.2909 41.7349 53.5 43.5257 53.5 45.7349C53.5 47.944 55.2909 49.7349 57.5 49.7349C59.7091 49.7349 61.5 47.944 61.5 45.7349ZM29.7366 45.7349L29.0413 46.0159C29.1558 46.2993 29.4309 46.4849 29.7366 46.4849L29.7366 45.7349ZM23.269 29.7349L23.9644 29.4538C23.8498 29.1704 23.5747 28.9849 23.269 28.9849L23.269 29.7349ZM1.5 28.9849C1.08579 28.9849 0.750001 29.3206 0.750001 29.7349C0.750001 30.1491 1.08579 30.4849 1.5 30.4849L1.5 28.9849ZM57.5 44.9849L29.7366 44.9849L29.7366 46.4849L57.5 46.4849L57.5 44.9849ZM30.432 45.4538L23.9644 29.4538L22.5737 30.0159L29.0413 46.0159L30.432 45.4538ZM23.269 28.9849L1.5 28.9849L1.5 30.4849L23.269 30.4849L23.269 28.9849Z" fill="url(#paint0_linear_437_9367)"/>
<defs>
<linearGradient id="paint0_linear_437_9367" x1="0.471429" y1="37.7349" x2="59.2714" y2="37.7349" gradientUnits="userSpaceOnUse">
<stop stop-color="#0095ED"/>
<stop offset="1" stop-color="#151ECF"/>
</linearGradient>
</defs>
</svg>
