<svg width="67" height="68" viewBox="0 0 67 68" fill="none" xmlns="http://www.w3.org/2000/svg">
<g filter="url(#filter0_d_589_9187)">
<rect x="13" y="13.457" width="40" height="40" rx="20" fill="#25D366"/>
<path d="M38.3322 35.1154C38.2889 35.0946 36.6688 34.2968 36.3809 34.1932C36.2634 34.151 36.1375 34.1098 36.0036 34.1098C35.7848 34.1098 35.6011 34.2188 35.4579 34.433C35.2961 34.6735 34.8062 35.2462 34.6548 35.4172C34.6351 35.4398 34.6081 35.4668 34.5919 35.4668C34.5774 35.4668 34.3267 35.3636 34.2508 35.3306C32.5129 34.5757 31.1938 32.7603 31.0129 32.4542C30.9871 32.4102 30.986 32.3902 30.9858 32.3902C30.9921 32.3669 31.0506 32.3083 31.0807 32.2781C31.169 32.1908 31.2646 32.0757 31.3571 31.9643C31.4009 31.9116 31.4447 31.8588 31.4878 31.809C31.622 31.6529 31.6817 31.5317 31.751 31.3913L31.7873 31.3183C31.9564 30.9823 31.812 30.6988 31.7653 30.6072C31.727 30.5306 31.0429 28.8796 30.9702 28.7062C30.7953 28.2877 30.5642 28.0928 30.2431 28.0928C30.2133 28.0928 30.2431 28.0928 30.1181 28.098C29.9659 28.1045 29.1373 28.2136 28.7709 28.4445C28.3824 28.6895 27.7251 29.4703 27.7251 30.8434C27.7251 32.0793 28.5094 33.2462 28.8461 33.69C28.8545 33.7011 28.8698 33.7239 28.8921 33.7565C30.1817 35.6397 31.7892 37.0354 33.4189 37.6864C34.9878 38.3131 35.7307 38.3856 36.1531 38.3856H36.1532C36.3307 38.3856 36.4727 38.3716 36.598 38.3593L36.6776 38.3517C37.2195 38.3037 38.4106 37.6865 38.6815 36.9336C38.8949 36.3406 38.9512 35.6927 38.8092 35.4576C38.712 35.2977 38.5444 35.2172 38.3322 35.1154Z" fill="white"/>
<path d="M33.1972 22.3457C27.1788 22.3457 22.2824 27.2053 22.2824 33.1785C22.2824 35.1105 22.7994 37.0016 23.7788 38.6567L21.9042 44.1867C21.8692 44.2898 21.8952 44.4038 21.9715 44.4814C22.0265 44.5376 22.1012 44.5679 22.1775 44.5679C22.2067 44.5679 22.2361 44.5635 22.2648 44.5544L28.0311 42.722C29.609 43.5651 31.3924 44.0101 33.1973 44.0101C39.2152 44.0102 44.1111 39.1511 44.1111 33.1785C44.1111 27.2053 39.2152 22.3457 33.1972 22.3457ZM33.1972 41.7536C31.4989 41.7536 29.854 41.2632 28.44 40.3354C28.3924 40.3041 28.3372 40.2881 28.2817 40.2881C28.2523 40.2881 28.2229 40.2926 28.1942 40.3017L25.3057 41.2199L26.2381 38.4689C26.2683 38.3798 26.2532 38.2816 26.1977 38.2057C25.1209 36.7344 24.5517 34.9961 24.5517 33.1785C24.5517 28.4496 28.4301 24.6023 33.1972 24.6023C37.9637 24.6023 41.8416 28.4496 41.8416 33.1785C41.8417 37.9069 37.9638 41.7536 33.1972 41.7536Z" fill="white"/>
</g>
<defs>
<filter id="filter0_d_589_9187" x="0.333333" y="0.790364" width="66.6667" height="66.6667" filterUnits="userSpaceOnUse" color-interpolation-filters="sRGB">
<feFlood flood-opacity="0" result="BackgroundImageFix"/>
<feColorMatrix in="SourceAlpha" type="matrix" values="0 0 0 0 0 0 0 0 0 0 0 0 0 0 0 0 0 0 127 0" result="hardAlpha"/>
<feOffset dx="0.666667" dy="0.666667"/>
<feGaussianBlur stdDeviation="6.66667"/>
<feComposite in2="hardAlpha" operator="out"/>
<feColorMatrix type="matrix" values="0 0 0 0 0 0 0 0 0 0 0 0 0 0 0 0 0 0 0.12 0"/>
<feBlend mode="normal" in2="BackgroundImageFix" result="effect1_dropShadow_589_9187"/>
<feBlend mode="normal" in="SourceGraphic" in2="effect1_dropShadow_589_9187" result="shape"/>
</filter>
</defs>
</svg>
